{"glyphs":{":":{"x_min":0,"x_max":260,"ha":260,"o":"m 90 286 q 90 312 109 331 q 128 349 154 349 q 180 349 198 331 q 217 312 217 286 q 217 260 198 241 q 180 222 154 222 q 128 222 109 241 q 90 260 90 286 z m 42 49 q 42 75 61 94 q 80 112 106 112 q 132 112 151 94 q 169 75 169 49 q 169 23 150 4 q 132 -15 106 -15 q 80 -15 61 4 q 42 23 42 49 z"},"$":{"x_min":0,"x_max":458,"ha":458,"o":"m 320 622 l 308 568 q 373 558 412 531 l 385 402 l 368 402 q 370 420 370 436 q 370 531 302 537 l 257 330 q 314 262 341 219 q 367 175 367 132 q 367 72 320 29 q 273 -14 204 -14 q 194 -14 184 -13 l 168 -91 l 133 -91 l 150 -13 q 90 -7 45 29 l 73 157 l 90 157 q 86 134 86 114 q 86 31 156 16 l 204 244 q 155 303 137 335 q 119 368 119 417 q 119 477 160 520 q 201 563 273 568 l 285 622 z m 229 361 l 267 536 q 236 530 216 503 q 195 476 195 443 q 195 415 229 361 z m 233 214 l 191 16 q 231 20 257 48 q 282 76 282 112 q 282 135 273 155 q 263 174 233 214 z"},"?":{"x_min":0,"x_max":365,"ha":365,"o":"m 142 152 l 123 152 q 127 193 141 224 q 155 255 210 301 q 266 346 286 379 q 306 412 306 446 q 306 476 282 498 q 259 520 226 520 q 175 520 123 456 l 107 462 q 131 524 173 557 q 216 591 267 591 q 318 591 351 555 q 384 519 384 462 q 384 403 352 360 q 320 317 257 274 q 194 232 172 205 q 151 179 142 152 z m 41 49 q 41 75 60 94 q 79 112 105 112 q 131 112 150 94 q 168 75 168 49 q 168 23 149 4 q 131 -15 105 -15 q 79 -15 60 4 q 41 23 41 49 z"},"<":{"x_min":0,"x_max":667,"ha":667,"o":"m 100 265 l 100 323 l 630 546 l 630 477 l 186 294 l 630 111 l 630 42 z"},"'":{"x_min":0,"x_max":278,"ha":278,"o":"m 164 330 l 138 474 q 127 543 127 557 q 127 615 174 615 q 196 615 210 601 q 225 586 225 563 q 225 543 212 474 l 185 330 z"},"=":{"x_min":0,"x_max":667,"ha":667,"o":"m 99 411 l 631 411 l 631 349 l 99 349 z m 99 180 l 631 180 l 631 118 l 99 118 z"},"a":{"x_min":0,"x_max":500,"ha":500,"o":"m 453 368 l 402 101 q 398 83 398 70 q 398 24 455 23 l 452 9 l 284 -14 l 299 57 l 297 59 q 233 -15 155 -15 q 105 -15 72 20 q 38 55 38 106 q 38 204 129 286 q 220 368 402 368 z m 309 108 l 356 329 l 307 329 q 224 329 179 260 q 134 192 134 123 q 134 88 155 63 q 176 39 206 39 q 224 39 241 47 q 257 55 283 79 q 308 104 309 108 z"},"L":{"x_min":0,"x_max":521,"ha":521,"o":"m 521 127 l 470 0 l 19 0 l 23 17 q 64 23 84 42 q 104 60 114 109 l 188 452 q 194 480 194 495 q 194 540 124 551 l 127 568 l 404 568 l 401 551 q 347 537 331 520 q 314 504 303 452 l 231 124 q 225 95 225 78 q 225 53 240 43 q 254 33 291 33 l 359 33 q 402 33 435 55 q 467 78 504 127 z"},"3":{"x_min":0,"x_max":458,"ha":458,"o":"m 156 506 l 145 517 q 224 600 323 600 q 374 600 405 569 q 437 539 437 490 q 437 429 390 381 q 344 334 264 312 l 264 310 q 333 304 368 267 q 403 229 403 168 q 403 92 344 38 q 284 -15 199 -15 q 100 -15 16 62 l 26 75 q 66 50 90 42 q 113 34 147 34 q 215 34 260 81 q 305 127 305 197 q 305 294 172 294 l 176 311 q 260 336 301 373 q 343 409 343 466 q 343 504 319 527 q 296 549 258 549 q 217 549 156 506 z"},";":{"x_min":0,"x_max":260,"ha":260,"o":"m 90 286 q 90 312 109 331 q 128 349 154 349 q 180 349 198 331 q 217 312 217 286 q 217 260 198 241 q 180 222 154 222 q 128 222 109 241 q 90 260 90 286 z m -12 -142 l -8 -126 q 39 -113 64 -86 q 89 -58 89 -27 q 89 -17 64 0 q 39 16 39 50 q 39 77 57 95 q 76 113 103 113 q 132 113 149 94 q 166 75 166 42 q 166 -19 117 -74 q 69 -128 -12 -142 z"},"J":{"x_min":0,"x_max":417,"ha":417,"o":"m 136 -34 l 241 456 q 247 481 247 496 q 247 542 178 551 l 180 568 l 450 568 l 448 551 q 409 545 388 529 q 368 512 356 456 l 256 -11 q 209 -225 20 -225 q -42 -225 -96 -186 l -88 -172 q -49 -191 -18 -191 q 103 -191 136 -34 z"},"V":{"x_min":0,"x_max":583,"ha":583,"o":"m 575 481 l 221 -14 l 206 -14 l 209 468 q 209 517 196 532 q 184 547 155 551 l 158 568 l 382 568 l 380 551 q 324 547 324 468 l 324 182 l 326 182 l 516 457 q 539 490 539 515 q 539 551 493 551 l 496 568 l 654 568 l 651 551 q 621 545 575 481 z"},"\"":{"x_min":0,"x_max":555,"ha":555,"o":"m 392 330 l 366 474 q 355 543 355 557 q 355 615 402 615 q 424 615 438 601 q 453 586 453 563 q 453 543 440 474 l 413 330 z m 213 330 l 187 474 q 176 543 176 557 q 176 615 223 615 q 245 615 259 601 q 274 586 274 563 q 274 543 261 474 l 234 330 z"},"7":{"x_min":0,"x_max":458,"ha":458,"o":"m 498 585 l 495 568 l 247 -12 l 139 -12 l 434 488 l 232 488 q 140 488 118 418 l 101 418 l 147 585 z"},"S":{"x_min":0,"x_max":438,"ha":438,"o":"m 433 583 l 408 444 l 388 444 q 385 549 302 549 q 264 549 237 520 q 210 491 210 450 q 210 428 224 401 q 237 374 297 306 q 357 239 375 200 q 393 162 393 129 q 393 63 343 24 q 292 -15 207 -15 q 169 -15 125 -8 q 80 0 73 0 q 53 0 44 -15 l 28 -15 l 57 125 l 74 125 q 91 19 184 19 q 225 19 251 42 q 278 66 278 102 q 278 126 264 155 q 251 183 195 246 q 138 309 122 345 q 106 381 106 413 q 106 483 159 533 q 211 583 286 583 q 303 583 343 575 q 384 568 387 568 q 407 568 417 583 z"},"}":{"x_min":0,"x_max":394,"ha":394,"o":"m 344 148 l 344 132 q 292 125 263 95 q 233 66 233 27 q 233 6 244 -38 q 255 -83 255 -125 q 255 -194 205 -248 q 154 -301 70 -314 l 74 -296 q 182 -269 182 -180 q 182 -155 171 -104 q 160 -54 160 -28 q 160 26 198 70 q 235 115 304 139 l 304 141 q 235 165 198 210 q 160 254 160 308 q 160 334 171 385 q 182 435 182 460 q 182 548 74 576 l 70 594 q 154 582 205 528 q 255 474 255 405 q 255 362 244 318 q 233 273 233 253 q 233 214 263 185 q 292 155 344 148 z"},"Z":{"x_min":0,"x_max":594,"ha":594,"o":"m 539 128 l 512 0 l 37 0 l 41 17 l 461 535 l 280 535 q 236 535 211 513 q 185 491 166 443 l 149 443 l 176 568 l 619 568 l 616 555 l 196 33 l 405 33 q 484 33 522 128 z"},"x":{"x_min":0,"x_max":417,"ha":417,"o":"m 256 208 l 312 67 q 326 32 340 25 q 353 18 379 17 l 376 0 l 198 0 l 202 17 q 231 17 231 34 q 231 42 223 63 l 194 138 l 125 60 q 106 39 106 29 q 106 18 135 17 l 131 0 l 19 0 l 23 17 q 46 18 91 67 l 182 168 l 136 294 q 121 335 81 336 l 85 353 l 252 353 l 248 336 q 221 334 221 318 q 221 312 223 305 l 246 237 l 307 306 q 313 312 313 320 q 313 335 294 336 l 298 353 l 404 353 l 400 336 q 369 333 334 294 z"},")":{"x_min":0,"x_max":396,"ha":396,"o":"m -23 -326 l -50 -326 q 84 -195 154 -32 q 224 132 224 308 q 224 387 210 448 q 196 509 159 604 l 175 604 q 315 397 315 210 q 315 -103 -23 -326 z"},"&":{"x_min":0,"x_max":719,"ha":719,"o":"m 794 -48 l 801 -64 q 738 -110 670 -110 q 617 -110 567 -80 q 518 -49 430 50 q 336 -15 254 -15 q 184 -15 134 32 q 85 79 85 145 q 85 272 261 328 q 235 383 235 444 q 235 503 282 543 q 329 583 399 583 q 456 583 491 555 q 527 527 527 483 q 527 388 372 343 q 395 292 502 145 q 559 211 559 265 q 559 292 544 308 q 529 324 504 324 q 492 324 474 317 l 477 335 q 513 351 543 351 q 596 351 596 290 q 596 213 517 125 q 646 -56 737 -56 q 757 -56 794 -48 z m 331 478 q 331 421 361 366 q 440 406 440 479 q 440 510 425 529 q 411 549 388 549 q 364 549 348 528 q 331 508 331 478 z m 271 304 q 196 275 196 207 q 196 148 237 96 q 278 45 338 45 q 370 45 413 71 q 329 180 271 304 z"},"_":{"x_min":0,"x_max":500,"ha":500,"o":"m 509 -125 l -8 -125 l -8 -75 l 509 -75 z"},"v":{"x_min":0,"x_max":427,"ha":427,"o":"m 363 267 l 194 -14 l 173 -14 l 112 267 q 104 307 88 319 q 72 331 42 336 l 45 353 l 251 353 l 248 336 q 200 329 200 286 q 200 269 206 240 l 235 109 l 331 267 q 344 289 344 305 q 344 333 299 336 l 302 353 l 445 353 l 442 336 q 413 326 398 313 q 383 300 363 267 z"},"O":{"x_min":0,"x_max":667,"ha":667,"o":"m 438 583 q 535 583 601 521 q 667 459 667 354 q 667 211 557 98 q 447 -15 309 -15 q 208 -15 141 46 q 73 106 73 212 q 73 352 181 467 q 290 583 438 583 z m 328 19 q 421 19 484 131 q 548 243 548 372 q 548 451 510 500 q 473 549 413 549 q 320 549 256 438 q 192 326 192 197 q 192 117 230 68 q 268 19 328 19 z"},"(":{"x_min":0,"x_max":396,"ha":396,"o":"m 418 604 l 445 604 q 311 472 241 308 q 171 144 171 -30 q 171 -172 237 -326 l 221 -326 q 80 -123 80 68 q 80 379 418 604 z"},"C":{"x_min":0,"x_max":531,"ha":531,"o":"m 542 591 l 522 434 l 508 434 q 500 489 470 519 q 439 549 396 549 q 313 549 252 456 q 191 362 191 232 q 191 144 232 91 q 273 37 339 37 q 426 37 494 133 l 507 125 q 465 54 416 19 q 366 -15 289 -15 q 188 -15 130 50 q 72 115 72 230 q 72 384 165 483 q 258 583 379 583 q 414 583 444 576 q 474 570 491 570 q 515 570 527 591 z"},"W":{"x_min":0,"x_max":896,"ha":896,"o":"m 947 568 l 943 551 q 889 524 845 458 l 534 -14 l 515 -14 l 522 444 l 520 446 l 217 -14 l 200 -14 l 209 465 q 210 512 198 530 q 187 548 158 551 l 161 568 l 387 568 l 384 551 q 352 550 338 531 q 324 512 323 452 l 319 199 l 321 197 l 522 510 q 519 547 471 551 l 474 568 l 695 568 l 692 551 q 668 547 655 531 q 641 514 639 454 l 632 199 l 634 197 l 804 459 q 825 490 825 512 q 825 547 784 551 l 788 568 z"},"A":{"x_min":0,"x_max":583,"ha":583,"o":"m 363 107 l 363 194 l 212 194 l 139 84 q 125 62 125 49 q 125 24 174 17 l 171 0 l -4 0 l -1 17 q 39 22 61 44 q 83 65 122 123 l 430 583 l 478 583 l 478 100 q 478 53 490 35 q 503 18 547 17 l 544 0 l 291 0 l 294 17 q 332 21 347 37 q 363 53 363 107 z m 363 234 l 363 423 l 361 423 l 238 234 z"},"f":{"x_min":0,"x_max":313,"ha":313,"o":"m 308 353 l 301 319 l 231 319 l 175 8 q 146 -151 82 -215 q 18 -279 -96 -279 q -165 -279 -206 -264 l -172 -150 l -156 -150 q -143 -247 -71 -247 q -25 -247 12 -208 q 49 -169 62 -98 l 138 319 l 53 319 l 60 353 l 145 353 q 182 615 360 615 q 395 615 434 604 l 446 614 l 463 614 l 425 494 l 411 494 q 408 589 351 589 q 288 589 265 480 l 238 353 z"},"Q":{"x_min":0,"x_max":667,"ha":667,"o":"m 929 -104 l 941 -118 q 845 -236 725 -236 q 650 -236 554 -178 q 458 -121 356 -11 q 333 -15 309 -15 q 208 -15 141 46 q 73 107 73 212 q 73 356 183 469 q 293 583 432 583 q 537 583 602 520 q 667 457 667 354 q 667 259 613 171 q 560 82 465 27 q 528 -59 610 -107 q 691 -155 772 -155 q 830 -155 929 -104 z m 328 19 q 422 19 485 129 q 548 239 548 372 q 548 451 510 500 q 473 549 413 549 q 321 549 257 438 q 192 328 192 197 q 192 117 230 68 q 268 19 328 19 z"},"w":{"x_min":0,"x_max":635,"ha":635,"o":"m 600 266 l 414 -14 l 399 -14 l 354 244 l 162 -14 l 143 -14 l 111 253 q 102 331 60 336 l 63 353 l 240 353 l 237 336 q 198 323 198 281 q 198 266 202 237 l 218 109 l 349 281 q 339 332 292 336 l 295 353 l 484 353 l 481 336 q 441 327 441 284 q 441 266 448 226 l 467 115 l 568 265 q 580 283 580 301 q 580 328 550 336 l 553 353 l 674 353 l 671 336 q 644 332 600 266 z"},"-":{"x_min":0,"x_max":365,"ha":365,"o":"m 328 216 l 313 143 l 37 143 l 52 216 z"},"E":{"x_min":0,"x_max":552,"ha":552,"o":"m 469 360 l 439 219 l 422 219 q 417 276 347 276 l 262 276 l 227 111 q 221 83 221 70 q 221 48 238 41 q 255 33 295 33 l 377 33 q 415 33 443 57 q 472 80 502 128 l 518 128 l 467 0 l 22 0 l 26 17 q 62 23 82 42 q 102 62 112 111 l 190 478 q 193 490 193 500 q 193 541 131 551 l 134 568 l 532 568 l 510 466 l 491 466 q 487 503 477 519 q 467 535 430 535 l 317 535 l 269 309 l 347 309 q 430 309 452 360 z"},"s":{"x_min":0,"x_max":344,"ha":344,"o":"m 333 369 l 309 255 l 294 255 q 288 296 265 319 q 241 341 209 341 q 186 341 170 330 q 155 318 155 302 q 155 281 208 227 q 260 172 276 142 q 291 111 291 85 q 291 42 255 13 q 219 -15 162 -15 q 132 -15 102 -9 q 72 -2 64 -2 q 43 -2 36 -14 l 20 -14 l 47 112 l 63 112 q 70 12 145 12 q 169 12 186 26 q 203 40 203 59 q 203 75 193 95 q 182 114 141 156 q 100 199 88 220 q 77 242 77 261 q 77 307 115 337 q 153 368 211 368 q 236 368 263 363 q 291 358 291 358 q 307 358 318 369 z"},">":{"x_min":0,"x_max":667,"ha":667,"o":"m 631 265 l 101 42 l 101 111 l 545 294 l 101 477 l 101 546 l 631 323 z"},"l":{"x_min":0,"x_max":281,"ha":281,"o":"m 286 591 l 179 88 q 176 73 176 62 q 176 19 232 17 l 228 0 l 9 0 l 12 17 q 53 21 66 39 q 80 57 91 111 l 164 453 q 170 482 170 500 q 170 556 106 551 l 109 568 l 277 591 z"},"8":{"x_min":0,"x_max":458,"ha":458,"o":"m 224 300 q 161 384 161 443 q 161 505 214 552 q 268 600 338 600 q 390 600 422 570 q 455 539 455 492 q 455 407 316 326 q 360 264 375 229 q 390 193 390 153 q 390 82 338 33 q 285 -15 208 -15 q 145 -15 106 19 q 67 52 67 106 q 67 156 100 196 q 132 236 224 300 z m 299 350 q 381 410 381 485 q 381 520 359 543 q 338 566 306 566 q 275 566 254 544 q 232 521 232 490 q 232 458 260 414 q 289 370 299 350 z m 239 275 q 141 197 141 110 q 141 72 167 46 q 193 19 230 19 q 266 19 289 45 q 312 71 312 112 q 312 180 239 275 z"},"\\":{"x_min":0,"x_max":531,"ha":531,"o":"m 181 591 l 477 -15 l 410 -15 l 114 591 z"},"e":{"x_min":0,"x_max":406,"ha":406,"o":"m 356 94 l 369 83 q 295 -15 194 -15 q 130 -15 87 26 q 44 68 44 129 q 44 224 122 296 q 200 368 303 368 q 340 368 364 350 q 388 332 388 304 q 388 253 315 211 q 241 170 140 160 q 138 149 138 139 q 138 96 168 68 q 198 39 237 39 q 298 39 356 94 z m 143 182 q 210 189 253 223 q 296 257 296 292 q 296 310 285 321 q 274 332 258 332 q 220 332 186 290 q 152 249 143 182 z"},"b":{"x_min":0,"x_max":490,"ha":490,"o":"m 273 591 l 216 325 q 292 368 344 368 q 397 368 433 328 q 468 288 468 227 q 468 136 383 61 q 297 -15 170 -15 l 51 -15 l 155 475 q 159 495 159 508 q 159 555 104 555 l 107 568 l 263 591 z m 209 290 l 152 20 q 177 17 196 17 q 268 17 319 77 q 370 136 370 215 q 370 258 345 286 q 320 314 283 314 q 253 314 209 290 z"},"%":{"x_min":0,"x_max":729,"ha":729,"o":"m 86 392 q 86 465 138 533 q 190 600 258 600 q 297 600 324 568 q 351 536 351 488 q 351 411 298 345 q 245 280 183 280 q 141 280 114 312 q 86 343 86 392 z m 282 489 q 282 576 239 576 q 208 576 182 522 q 156 468 156 398 q 156 304 196 304 q 230 304 256 359 q 282 413 282 489 z m 692 600 l 169 -7 l 108 -7 l 631 600 z m 448 104 q 448 178 500 245 q 552 312 620 312 q 660 312 686 280 q 713 248 713 200 q 713 123 660 57 q 607 -8 545 -8 q 503 -8 476 24 q 448 55 448 104 z m 644 201 q 644 288 601 288 q 570 288 544 234 q 518 180 518 110 q 518 16 558 16 q 592 16 618 71 q 644 125 644 201 z"},"m":{"x_min":0,"x_max":719,"ha":719,"o":"m 75 104 l 106 252 q 109 269 109 282 q 109 328 48 328 l 51 345 l 217 368 l 224 368 l 211 309 l 213 307 q 271 368 340 368 q 420 368 436 307 q 506 368 573 368 q 615 368 641 347 q 667 325 667 286 q 667 273 664 258 l 627 80 q 625 69 625 60 q 625 19 670 17 l 667 0 l 468 0 l 471 17 q 505 27 518 42 q 530 58 540 104 l 568 233 q 571 248 571 260 q 571 316 521 316 q 480 316 435 268 l 395 80 q 393 71 393 63 q 393 24 435 17 l 432 0 l 239 0 l 242 17 q 275 24 286 43 q 298 62 307 104 l 335 233 q 339 250 339 265 q 339 316 298 316 q 255 316 199 253 l 163 80 q 160 68 160 60 q 160 28 203 17 l 200 0 l 10 0 l 13 17 q 34 21 49 37 q 64 53 75 104 z"},"#":{"x_min":0,"x_max":668,"ha":668,"o":"m 233 477 l 274 672 l 336 672 l 295 477 l 498 477 l 539 672 l 601 672 l 560 477 l 652 477 l 652 415 l 547 415 l 508 235 l 652 235 l 652 173 l 495 173 l 454 -22 l 392 -22 l 433 173 l 230 173 l 189 -22 l 127 -22 l 168 173 l 76 173 l 76 235 l 181 235 l 220 415 l 76 415 l 76 477 z m 485 415 l 282 415 l 243 235 l 446 235 z"},",":{"x_min":0,"x_max":260,"ha":260,"o":"m -12 -142 l -8 -126 q 39 -113 64 -86 q 89 -58 89 -27 q 89 -17 64 0 q 39 16 39 50 q 39 77 57 95 q 76 113 103 113 q 132 113 149 94 q 166 75 166 42 q 166 -19 117 -74 q 69 -128 -12 -142 z"},"n":{"x_min":0,"x_max":510,"ha":510,"o":"m 75 100 l 107 252 q 111 272 111 285 q 111 327 46 327 l 50 344 l 215 368 l 225 368 l 211 305 l 213 303 q 271 368 341 368 q 387 368 419 339 q 451 311 451 265 q 451 252 448 237 l 418 84 q 416 74 416 65 q 416 26 455 17 l 452 0 l 264 0 l 267 17 q 297 24 308 42 q 320 61 328 100 l 352 214 q 356 235 356 252 q 356 314 297 314 q 262 314 232 287 q 201 260 200 254 l 164 80 q 162 70 162 62 q 162 27 209 17 l 206 0 l 10 0 l 13 17 q 44 25 55 43 q 66 60 75 100 z"},"h":{"x_min":0,"x_max":510,"ha":510,"o":"m 71 81 l 157 485 q 160 497 160 507 q 160 550 105 551 l 108 568 l 259 591 l 274 591 l 213 306 l 215 304 q 275 368 342 368 q 393 368 423 338 q 454 307 454 259 q 454 243 450 227 l 420 88 q 417 72 417 61 q 417 22 459 17 l 456 0 l 257 0 l 261 17 q 286 21 301 36 q 315 52 327 105 l 354 231 q 357 243 357 254 q 357 282 340 298 q 324 314 297 314 q 280 314 264 307 q 249 299 226 277 q 203 254 202 251 l 165 79 q 163 69 163 61 q 163 24 205 17 l 201 0 l 11 0 l 15 17 q 42 23 53 36 q 64 48 71 81 z"},"z":{"x_min":0,"x_max":458,"ha":458,"o":"m 24 26 l 305 327 l 187 327 q 128 327 100 266 l 83 266 l 101 353 l 428 353 l 428 327 l 145 26 l 262 26 q 346 26 372 95 l 389 95 l 368 0 l 24 0 z"},"B":{"x_min":0,"x_max":594,"ha":594,"o":"m 120 112 l 207 522 q 159 510 118 476 l 107 489 q 212 583 351 583 q 441 583 493 546 q 545 509 545 446 q 545 331 393 300 l 393 298 q 473 289 516 250 q 559 212 559 156 q 559 93 505 47 q 450 0 365 0 l 21 0 l 25 17 q 64 24 86 38 q 107 52 120 112 z m 325 535 l 279 317 q 292 315 313 315 q 366 315 401 347 q 435 378 435 435 q 435 483 406 510 q 377 537 325 535 z m 271 282 l 231 91 q 230 86 230 81 q 230 60 247 46 q 264 32 294 32 q 356 32 398 71 q 440 109 440 167 q 440 215 399 249 q 359 283 300 283 q 277 283 271 282 z"},"K":{"x_min":0,"x_max":667,"ha":667,"o":"m 363 343 l 504 122 q 572 17 643 17 l 639 0 l 374 0 l 378 17 q 417 20 417 44 q 417 63 395 96 l 267 291 l 226 95 q 223 81 223 70 q 223 22 282 17 l 278 0 l 33 0 l 37 17 q 75 26 88 42 q 102 58 111 102 l 187 453 q 192 477 192 492 q 192 542 126 551 l 129 568 l 393 568 l 390 551 q 356 544 335 527 q 314 510 305 467 l 271 310 l 273 308 l 446 463 q 487 500 487 523 q 487 543 456 551 l 459 568 l 642 568 l 639 551 q 588 541 535 494 z"},"R":{"x_min":0,"x_max":625,"ha":625,"o":"m 262 283 l 223 102 q 219 83 219 70 q 219 22 280 17 l 277 0 l 19 0 l 23 17 q 69 28 84 46 q 99 63 109 111 l 198 530 q 144 513 92 474 l 79 485 q 184 583 334 583 q 431 583 489 543 q 546 503 546 437 q 546 379 503 338 q 459 297 387 297 l 387 295 q 455 283 480 256 q 505 229 532 152 q 558 75 574 54 q 590 32 629 17 l 626 0 l 414 0 l 417 18 q 450 28 450 51 q 450 57 447 64 l 402 191 q 370 283 279 283 z m 316 536 l 268 315 q 290 310 310 310 q 364 310 396 346 q 427 381 427 426 q 427 474 396 505 q 365 537 316 536 z"},"T":{"x_min":0,"x_max":573,"ha":573,"o":"m 426 535 l 331 88 q 329 78 329 70 q 329 22 396 17 l 392 0 l 127 0 l 131 17 q 180 27 196 45 q 211 62 221 110 l 311 535 l 241 535 q 148 535 123 462 l 106 462 l 131 583 l 148 583 q 162 568 192 568 l 549 568 q 590 568 600 583 l 615 583 l 589 462 l 572 462 q 565 535 502 535 z"},"P":{"x_min":0,"x_max":573,"ha":573,"o":"m 281 268 l 240 78 q 239 73 239 68 q 239 22 311 17 l 307 0 l 36 0 l 39 17 q 85 26 102 43 q 120 61 128 101 l 218 527 q 167 511 113 474 l 104 487 q 231 583 356 583 q 454 583 513 539 q 573 495 573 424 q 573 352 516 301 q 459 250 376 250 q 330 250 281 268 z m 337 536 l 286 292 q 311 284 330 284 q 386 284 420 322 q 454 359 454 421 q 454 473 422 505 q 390 536 337 536 z"},"|":{"x_min":0,"x_max":527,"ha":527,"o":"m 262 616 l 327 616 l 327 -215 l 262 -215 z"},"t":{"x_min":0,"x_max":333,"ha":333,"o":"m 335 353 l 327 318 l 215 318 l 170 102 q 168 92 168 83 q 168 39 205 39 q 232 39 288 77 l 300 67 q 229 -15 142 -15 q 70 -15 70 58 q 70 72 74 89 l 122 318 l 49 318 l 53 336 q 141 367 231 472 l 248 472 l 223 353 z"},"M":{"x_min":0,"x_max":760,"ha":760,"o":"m 709 457 l 632 99 q 628 81 628 69 q 628 24 696 17 l 693 0 l 423 0 l 426 17 q 476 24 493 44 q 509 63 519 109 l 590 443 l 588 445 l 297 0 l 275 0 l 278 443 l 276 445 l 129 99 q 117 71 117 56 q 117 23 172 17 l 169 0 l 6 0 l 9 17 q 41 28 58 49 q 75 69 95 112 l 281 515 q 245 553 190 551 l 192 568 l 396 568 l 395 207 l 397 205 l 632 568 l 795 568 l 793 551 q 750 541 735 524 q 720 508 709 457 z"},"g":{"x_min":0,"x_max":490,"ha":490,"o":"m 458 368 l 346 -162 q 335 -216 286 -248 q 236 -279 146 -279 q 72 -279 24 -249 q -24 -218 -24 -167 q -24 -89 104 -26 q 136 -10 152 -1 l 152 1 q 111 4 88 36 q 65 68 65 107 q 65 213 159 294 q 253 375 458 368 z m 356 323 l 317 326 q 251 326 205 270 q 158 213 158 133 q 158 94 177 68 q 197 42 225 42 q 257 42 305 82 z m 242 -213 l 297 46 q 269 26 197 -4 q 125 -35 97 -68 q 69 -100 69 -138 q 69 -180 101 -213 q 133 -247 173 -247 q 195 -247 217 -237 q 239 -228 242 -213 z"},"j":{"x_min":0,"x_max":271,"ha":271,"o":"m 201 479 q 178 479 161 495 q 145 512 145 535 q 145 558 161 574 q 178 591 201 591 q 224 591 240 574 q 257 558 257 535 q 257 512 240 495 q 224 479 201 479 z m 42 -112 l 119 252 q 124 273 124 286 q 124 328 61 330 l 65 351 l 228 368 l 237 368 l 134 -116 q 99 -279 -18 -279 q -71 -279 -112 -248 l -108 -233 q -82 -241 -63 -241 q -22 -241 2 -211 q 27 -181 42 -112 z"},"i":{"x_min":0,"x_max":281,"ha":281,"o":"m 195 479 q 172 479 156 495 q 139 512 139 535 q 139 558 156 574 q 172 591 195 591 q 218 591 235 574 q 251 558 251 535 q 251 512 235 495 q 218 479 195 479 z m 83 84 l 117 249 q 122 270 122 284 q 122 328 58 328 l 62 345 l 225 368 l 236 368 l 177 88 q 174 73 174 62 q 174 23 228 17 l 225 0 l 7 0 l 11 17 q 71 25 83 84 z"},"y":{"x_min":0,"x_max":406,"ha":406,"o":"m 357 249 l 145 -105 q 113 -159 61 -206 q 9 -252 -33 -263 q -75 -274 -136 -274 l -113 -205 q -30 -204 31 -173 q 93 -142 154 -37 l 105 256 q 92 333 45 336 l 49 353 l 238 353 l 234 336 q 190 329 190 288 q 190 274 193 254 l 220 76 l 222 76 l 333 265 q 349 292 349 303 q 349 318 336 327 q 324 336 308 336 l 312 353 l 449 353 l 445 336 q 401 323 357 249 z"},"@":{"x_min":0,"x_max":832,"ha":832,"o":"m 685 467 l 595 158 q 582 110 582 87 q 582 71 593 61 q 603 50 618 50 q 692 50 759 147 q 826 244 826 369 q 826 500 737 585 q 647 670 509 670 q 327 670 208 530 q 90 391 90 204 q 90 32 197 -77 q 305 -187 472 -187 q 604 -187 706 -117 q 808 -48 865 84 l 893 84 q 848 -57 730 -136 q 613 -216 470 -216 q 287 -216 166 -93 q 44 31 44 217 q 44 417 179 556 q 313 695 506 695 q 662 695 758 602 q 855 509 855 360 q 855 227 779 121 q 703 15 586 15 q 511 15 511 82 q 511 109 519 152 l 517 154 q 415 15 327 15 q 290 15 264 48 q 238 81 238 128 q 238 242 331 356 q 425 470 507 470 q 579 470 591 403 l 593 403 l 608 457 z m 514 448 q 451 448 383 334 q 316 219 316 144 q 316 115 333 94 q 350 74 373 74 q 434 74 503 171 q 573 269 573 380 q 573 410 557 429 q 540 448 514 448 z"},".":{"x_min":0,"x_max":260,"ha":260,"o":"m 42 49 q 42 75 61 94 q 80 112 106 112 q 132 112 151 94 q 169 75 169 49 q 169 23 150 4 q 132 -15 106 -15 q 80 -15 61 4 q 42 23 42 49 z"},"p":{"x_min":0,"x_max":490,"ha":490,"o":"m -3 -279 l 110 251 q 113 266 113 277 q 113 328 58 328 l 61 345 l 227 368 l 217 321 q 281 368 339 368 q 397 368 434 331 q 470 294 470 235 q 470 134 381 60 q 292 -15 146 -15 l 113 -170 q 110 -185 110 -195 q 110 -239 167 -241 l 163 -258 l 13 -279 z m 210 287 l 153 18 q 167 16 188 16 q 276 16 325 79 q 374 143 374 210 q 374 259 350 289 q 327 319 288 319 q 255 319 210 287 z"},"X":{"x_min":0,"x_max":646,"ha":646,"o":"m 407 325 l 496 105 q 520 46 538 32 q 557 18 590 17 l 587 0 l 338 0 l 341 17 q 387 20 387 59 q 387 81 372 118 l 326 232 l 184 80 q 160 55 160 41 q 160 20 210 17 l 207 0 l 12 0 l 15 17 q 84 28 145 92 l 312 269 l 221 494 q 202 542 141 551 l 144 568 l 398 568 l 395 551 q 346 551 346 507 q 346 493 353 474 l 395 361 l 502 470 q 531 499 531 521 q 531 546 495 551 l 498 568 l 681 568 l 678 551 q 610 536 573 497 z"},"*":{"x_min":0,"x_max":510,"ha":510,"o":"m 312 418 q 335 430 372 462 q 408 495 427 502 q 445 510 462 510 q 485 510 500 496 q 514 481 514 459 q 514 432 492 415 q 470 399 433 399 q 408 399 382 402 q 355 406 346 406 q 332 406 317 402 q 327 389 375 360 q 424 332 438 311 q 453 291 453 270 q 453 249 438 235 q 423 220 401 220 q 375 220 356 240 q 338 260 325 320 q 312 381 304 393 q 292 379 277 317 q 262 254 245 236 q 229 218 206 218 q 184 218 167 233 q 151 249 151 270 q 151 292 168 313 q 186 335 234 364 q 283 393 290 402 q 278 405 261 405 l 167 401 q 130 401 111 417 q 91 434 91 459 q 91 481 106 497 q 122 513 144 513 q 161 513 179 505 q 198 497 234 462 q 270 428 295 418 q 293 439 272 487 q 250 535 250 569 q 250 592 266 609 q 283 626 305 626 q 328 626 343 609 q 358 593 358 568 q 358 534 335 487 q 312 440 312 418 z"},"Y":{"x_min":0,"x_max":583,"ha":583,"o":"m 396 302 l 353 101 q 349 83 349 70 q 349 21 416 17 l 412 0 l 129 0 l 133 17 q 181 24 205 42 q 229 59 239 108 l 277 287 l 202 449 q 160 542 104 551 l 107 568 l 353 568 l 350 551 q 309 550 309 512 q 309 482 333 431 l 379 333 l 482 461 q 510 496 510 518 q 510 547 462 551 l 465 568 l 645 568 l 642 551 q 587 540 524 461 z"},"c":{"x_min":0,"x_max":354,"ha":354,"o":"m 344 368 l 331 255 l 314 255 q 308 336 257 336 q 205 336 171 267 q 137 199 137 128 q 137 92 159 67 q 181 42 212 42 q 252 42 309 85 l 320 73 q 240 -15 167 -15 q 114 -15 77 24 q 41 64 41 122 q 41 227 108 297 q 175 368 243 368 q 263 368 279 365 q 294 362 298 362 q 311 362 321 365 l 330 368 z"},"!":{"x_min":0,"x_max":260,"ha":260,"o":"m 113 150 l 157 515 q 165 576 178 602 q 192 628 220 628 q 238 628 249 615 q 260 603 260 582 q 260 553 242 497 l 130 150 z m 42 49 q 42 75 61 94 q 80 112 106 112 q 132 112 151 94 q 169 75 169 49 q 169 23 150 4 q 132 -15 106 -15 q 80 -15 61 4 q 42 23 42 49 z"},"/":{"x_min":0,"x_max":531,"ha":531,"o":"m 420 591 l 487 591 l 191 -15 l 124 -15 z"},"[":{"x_min":0,"x_max":396,"ha":396,"o":"m 413 591 l 410 574 l 369 574 q 337 574 321 564 q 304 554 295 511 l 141 -218 q 137 -238 137 -250 q 137 -274 150 -283 q 162 -292 193 -292 l 225 -292 l 221 -309 l 23 -309 l 215 591 z"},"6":{"x_min":0,"x_max":458,"ha":458,"o":"m 192 310 q 248 362 313 362 q 364 362 399 321 q 435 279 435 220 q 435 125 372 55 q 309 -15 223 -15 q 148 -15 104 37 q 60 90 60 179 q 60 324 179 457 q 298 589 476 598 l 473 581 q 289 547 190 312 z m 264 312 q 212 312 183 265 q 154 218 154 150 q 154 91 178 55 q 203 19 242 19 q 289 19 318 64 q 347 108 347 183 q 347 244 325 278 q 303 312 264 312 z"},"r":{"x_min":0,"x_max":385,"ha":385,"o":"m 92 113 l 125 270 q 126 277 126 284 q 126 326 66 327 l 69 344 l 224 368 l 235 368 l 205 232 l 207 230 q 235 291 270 329 q 304 368 328 368 q 355 368 394 336 l 334 240 q 310 279 284 279 q 245 279 213 202 q 181 125 181 74 q 181 29 239 17 l 235 0 l 12 0 l 16 17 q 47 21 63 36 q 79 51 92 113 z"},"2":{"x_min":0,"x_max":458,"ha":458,"o":"m 387 78 l 371 0 l 30 0 l 35 21 q 211 180 278 289 q 345 397 345 461 q 345 498 320 523 q 295 548 259 548 q 208 548 130 473 l 118 482 q 211 600 314 600 q 373 600 408 567 q 443 534 443 480 q 443 403 367 309 q 292 215 137 78 z"},"{":{"x_min":0,"x_max":394,"ha":394,"o":"m 130 132 l 130 148 q 182 155 211 185 q 241 214 241 253 q 241 282 230 326 q 219 371 219 405 q 219 474 270 528 q 320 582 404 594 l 400 576 q 292 548 292 460 q 292 444 303 394 q 314 343 314 308 q 314 254 276 210 q 239 165 170 141 l 170 139 q 239 115 276 70 q 314 26 314 -28 q 314 -63 303 -114 q 292 -164 292 -180 q 292 -269 400 -296 l 404 -314 q 320 -301 270 -248 q 219 -194 219 -125 q 219 -90 230 -46 q 241 -1 241 27 q 241 66 211 95 q 182 125 130 132 z"},"9":{"x_min":0,"x_max":458,"ha":458,"o":"m 59 -15 l 62 3 q 246 30 345 273 l 343 275 q 287 223 223 223 q 172 223 136 264 q 101 306 101 365 q 101 461 164 531 q 227 600 312 600 q 387 600 431 548 q 475 495 475 406 q 475 252 351 121 q 226 -10 59 -15 z m 295 566 q 245 566 216 521 q 188 477 188 402 q 188 273 273 273 q 323 273 352 322 q 382 371 382 435 q 382 494 358 530 q 334 566 295 566 z"}," ":{"x_min":0,"x_max":225,"ha":225,"o":""},"I":{"x_min":0,"x_max":365,"ha":365,"o":"m 308 457 l 229 84 q 227 76 227 68 q 227 21 293 17 l 289 0 l 22 0 l 26 17 q 73 28 91 47 q 109 66 118 108 l 193 457 q 198 479 198 493 q 198 540 135 551 l 137 568 l 393 568 l 391 551 q 348 541 333 524 q 318 507 308 457 z"},"H":{"x_min":0,"x_max":771,"ha":771,"o":"m 559 281 l 269 281 l 227 84 q 225 76 225 68 q 225 23 290 17 l 287 0 l 21 0 l 24 17 q 72 28 89 43 q 105 58 113 95 l 194 463 q 197 477 197 489 q 197 544 127 551 l 130 568 l 402 568 l 399 551 q 352 541 334 521 q 316 500 307 460 l 277 323 l 567 323 l 595 451 q 601 479 601 494 q 601 539 534 551 l 537 568 l 806 568 l 803 551 q 765 543 744 530 q 724 516 712 461 l 633 90 q 631 79 631 70 q 631 24 696 17 l 693 0 l 427 0 l 430 17 q 479 26 496 46 q 512 65 522 111 z"},"4":{"x_min":0,"x_max":458,"ha":458,"o":"m 345 132 l 314 -14 l 223 -14 l 254 132 l 2 132 l 6 151 l 423 598 l 444 598 l 356 183 l 436 183 l 425 132 z m 72 183 l 265 183 l 323 452 z"},"~":{"x_min":0,"x_max":667,"ha":667,"o":"m 603 408 l 634 408 q 630 327 593 284 q 557 240 497 240 q 449 240 347 284 q 244 328 212 328 q 142 328 128 241 l 97 241 q 98 321 135 365 q 172 409 230 409 q 282 409 386 365 q 489 320 518 320 q 593 320 603 408 z"},"D":{"x_min":0,"x_max":719,"ha":719,"o":"m 135 95 l 227 524 q 168 511 101 458 l 90 470 q 209 583 379 583 q 530 583 624 499 q 718 416 718 292 q 718 204 670 134 q 622 63 543 32 q 464 0 294 0 l 36 0 l 40 17 q 84 22 106 40 q 127 57 135 95 z m 343 536 l 254 119 q 248 92 248 78 q 248 51 268 43 q 289 34 341 34 q 461 34 530 105 q 599 175 599 282 q 599 389 526 463 q 454 536 348 536 z"},"^":{"x_min":0,"x_max":570,"ha":570,"o":"m 99 326 l 297 677 l 338 677 l 536 326 l 462 326 l 317 576 l 173 326 z"},"0":{"x_min":0,"x_max":458,"ha":458,"o":"m 198 -15 q 130 -15 87 47 q 45 109 45 207 q 45 341 132 470 q 220 600 323 600 q 390 600 433 540 q 476 479 476 382 q 476 234 388 109 q 300 -15 198 -15 z m 295 566 q 232 566 188 454 q 143 342 143 210 q 143 19 223 19 q 291 19 334 137 q 378 255 378 388 q 378 566 295 566 z"},"F":{"x_min":0,"x_max":521,"ha":521,"o":"m 275 276 l 237 96 q 234 81 234 70 q 234 20 304 17 l 301 0 l 25 0 l 28 17 q 71 20 93 38 q 114 57 124 105 l 201 462 q 205 482 205 495 q 205 542 142 551 l 145 568 l 544 568 l 528 466 l 510 466 q 501 535 445 535 l 330 535 l 282 309 l 355 309 q 402 309 419 318 q 436 327 452 361 l 468 361 l 438 220 l 422 220 q 419 276 348 276 z"},"`":{"x_min":0,"x_max":333,"ha":333,"o":"m 81 598 l 256 598 l 318 431 l 301 431 z"},"k":{"x_min":0,"x_max":458,"ha":458,"o":"m 76 105 l 155 471 q 159 489 159 503 q 159 551 105 551 l 107 568 l 265 591 l 274 591 l 213 304 q 298 368 356 368 q 389 368 409 352 q 430 335 430 310 q 430 238 286 191 l 371 73 q 406 24 444 17 l 440 0 l 311 0 l 185 173 l 166 81 q 164 70 164 62 q 164 24 209 17 l 205 0 l 11 0 l 15 17 q 42 25 54 41 q 65 56 76 105 z m 207 276 l 188 186 q 334 215 334 280 q 334 314 297 314 q 255 314 207 276 z"},"u":{"x_min":0,"x_max":510,"ha":510,"o":"m 82 139 l 107 257 q 110 271 110 282 q 110 328 49 329 l 52 345 l 215 368 l 224 368 l 168 108 q 167 101 167 93 q 167 70 182 54 q 197 39 222 39 q 250 39 288 72 q 326 104 327 111 l 358 257 q 361 274 361 286 q 361 329 303 329 l 306 345 l 466 368 l 475 368 l 417 96 q 414 81 414 70 q 414 27 474 25 l 470 8 l 308 -14 l 300 -14 l 315 54 l 313 56 q 252 -15 178 -15 q 134 -15 105 14 q 77 43 77 94 q 77 115 82 139 z"},"]":{"x_min":0,"x_max":396,"ha":396,"o":"m -17 -309 l -14 -292 l 27 -292 q 59 -292 75 -282 q 92 -272 101 -229 l 255 500 q 259 520 259 532 q 259 556 246 565 q 234 574 203 574 l 171 574 l 175 591 l 373 591 l 181 -309 z"},"U":{"x_min":0,"x_max":771,"ha":771,"o":"m 701 454 l 652 225 q 629 119 553 52 q 477 -15 369 -15 q 264 -15 202 45 q 141 105 141 188 q 141 235 152 285 l 193 470 q 196 482 196 493 q 196 546 126 551 l 129 568 l 399 568 l 396 551 q 357 543 337 529 q 317 515 304 454 l 251 209 q 242 170 242 136 q 242 84 276 52 q 311 19 366 19 q 427 19 469 62 q 512 106 529 185 l 590 471 q 594 488 594 499 q 594 523 575 534 q 557 545 520 551 l 523 568 l 808 568 l 805 551 q 756 543 735 526 q 713 509 701 454 z"},"o":{"x_min":0,"x_max":427,"ha":427,"o":"m 167 -15 q 105 -15 65 23 q 25 62 25 120 q 25 209 100 289 q 175 368 281 368 q 334 368 373 330 q 412 291 412 238 q 412 145 334 65 q 257 -15 167 -15 z m 251 336 q 195 336 158 264 q 121 192 121 107 q 121 68 139 42 q 156 17 183 17 q 243 17 280 90 q 316 163 316 250 q 316 290 298 313 q 281 336 251 336 z"},"N":{"x_min":0,"x_max":688,"ha":688,"o":"m 657 455 l 568 -9 l 542 -9 l 242 446 l 180 111 q 177 93 177 80 q 177 27 243 17 l 240 0 l 59 0 l 62 17 q 94 22 113 40 q 132 59 143 111 l 223 486 q 196 524 175 537 q 154 549 106 551 l 109 568 l 301 568 l 568 165 l 622 459 q 625 479 625 494 q 625 551 567 551 l 570 568 l 744 568 l 741 551 q 674 542 657 455 z"},"+":{"x_min":0,"x_max":667,"ha":667,"o":"m 99 297 l 334 297 l 334 532 l 396 532 l 396 297 l 631 297 l 631 235 l 396 235 l 396 0 l 334 0 l 334 235 l 99 235 z"},"G":{"x_min":0,"x_max":656,"ha":656,"o":"m 563 132 l 539 17 q 429 -15 332 -15 q 71 -15 71 221 q 71 367 172 475 q 272 583 408 583 q 444 583 493 577 q 542 571 548 571 q 571 571 588 597 l 605 597 l 572 440 l 555 440 q 555 491 522 520 q 490 549 440 549 q 333 549 261 457 q 190 365 190 223 q 190 125 232 72 q 274 19 351 19 q 390 19 427 32 l 452 149 q 454 159 454 167 q 454 216 389 219 l 393 236 l 654 236 l 651 219 q 611 215 592 196 q 573 178 563 132 z"},"q":{"x_min":0,"x_max":479,"ha":479,"o":"m 459 367 l 348 -153 q 343 -177 343 -191 q 343 -233 396 -237 l 392 -258 l 228 -279 l 295 34 l 293 36 q 234 -15 177 -15 q 120 -15 79 28 q 38 70 38 130 q 38 228 146 300 q 254 373 459 367 z m 304 76 l 356 323 q 338 326 321 326 q 243 326 190 270 q 136 214 136 139 q 136 97 161 68 q 186 39 222 39 q 259 39 304 76 z"},"d":{"x_min":0,"x_max":490,"ha":490,"o":"m 501 591 l 396 99 q 394 86 394 76 q 394 28 451 27 l 447 10 l 290 -14 l 279 -14 l 290 38 q 219 -15 158 -15 q 109 -15 74 24 q 39 64 39 120 q 39 214 124 289 q 208 365 360 368 l 382 469 q 388 495 388 510 q 388 535 374 545 q 360 555 320 555 l 323 568 l 491 591 z m 298 76 l 352 331 q 327 336 315 336 q 239 336 187 280 q 135 223 135 140 q 135 95 156 67 q 178 39 212 39 q 250 39 298 76 z"},"1":{"x_min":0,"x_max":458,"ha":458,"o":"m 184 123 l 259 473 q 261 482 261 489 q 261 520 233 520 q 214 520 180 503 l 184 523 l 359 598 l 377 598 l 272 102 q 267 79 267 64 q 267 38 283 28 q 299 17 342 17 l 338 0 l 84 0 l 88 17 q 134 17 151 35 q 169 54 184 123 z"},"5":{"x_min":0,"x_max":458,"ha":458,"o":"m 219 497 l 179 310 q 207 315 231 315 q 309 315 353 275 q 397 236 397 165 q 397 84 343 34 q 289 -15 200 -15 q 121 -15 42 42 l 52 55 q 127 19 173 19 q 228 19 263 58 q 299 98 299 160 q 299 281 180 281 q 159 281 138 277 l 204 585 l 455 585 l 422 497 z"}}}
